HIERARCHY
ROOT pelvis
{
  OFFSET 0 100 0
  CHANNELS 6 Xposition Yposition Zposition Zrotation Xrotation Yrotation
  JOINT pelvis_right_femur
  {
    OFFSET -10.78128 -3.44521 -0.5502486
    CHANNELS 3 Zrotation Xrotation Yrotation
    JOINT right_femur_tibia
    {
      OFFSET -0.8047443 -44.0398 -0.1307829
      CHANNELS 3 Zrotation Xrotation Yrotation
      JOINT right_tibia_foot
      {
        OFFSET 3.006224 -47.83518 -5
        CHANNELS 3 Zrotation Xrotation Yrotation
        End Site
        {
          OFFSET 0 -5 15
        }
      }
    }
  }
  JOINT pelvis_left_femur
  {
    OFFSET 10.78128 -3.44521 -0.5502486
    CHANNELS 3 Zrotation Xrotation Yrotation
    JOINT left_femur_tibia
    {
      OFFSET 0.8047443 -44.0398 -0.1307829
      CHANNELS 3 Zrotation Xrotation Yrotation
      JOINT left_tibia_foot
      {
        OFFSET -4.370144 -48.10324 -4.275266
        CHANNELS 3 Zrotation Xrotation Yrotation
        End Site
        {
          OFFSET 0 -5 15
        }
      }
    }
  }
  JOINT pelvis_spine1
  {
    OFFSET 0 6.468898 -3.129235
    CHANNELS 3 Zrotation Xrotation Yrotation
    JOINT spine1
    {
      OFFSET 0 23.15396 4.99043
      CHANNELS 3 Zrotation Xrotation Yrotation
      JOINT spine2
      {
        OFFSET 0 20.79997 -5.064912
        CHANNELS 3 Zrotation Xrotation Yrotation
        JOINT neck
        {
          OFFSET 0 14.38658 9.616178
          CHANNELS 3 Zrotation Xrotation Yrotation
          End Site
          {
            OFFSET 0 20 0
          }
        }
      }
      JOINT right_manubrium
      {
        OFFSET -5.722621 16.35077 3.967754
        CHANNELS 3 Zrotation Xrotation Yrotation
        JOINT right_clavicle
        {
          OFFSET -13.16364 1.694482 -4.693211
          CHANNELS 3 Zrotation Xrotation Yrotation
          JOINT right_humerus
          {
            OFFSET -28.5034 -0.3100689 -2.792744
            CHANNELS 3 Zrotation Xrotation Yrotation
            JOINT right_radius
            {
              OFFSET -25.15693 0.02248979 -1.271978
              CHANNELS 3 Zrotation Xrotation Yrotation
              End Site
              {
                OFFSET -15 0 0
              }
            }
          }
        }
      }
      JOINT left_manubrium
      {
        OFFSET 5.722621 16.35077 3.967754
        CHANNELS 3 Zrotation Xrotation Yrotation
        JOINT left_clavicle
        {
          OFFSET 13.16364 1.694482 -4.693211
          CHANNELS 3 Zrotation Xrotation Yrotation
          JOINT left_humerus
          {
            OFFSET 29.39168 -1.063119 -2.237045
            CHANNELS 3 Zrotation Xrotation Yrotation
            JOINT left_radius
            {
              OFFSET 24.59957 -0.9528479 0.9047498
              CHANNELS 3 Zrotation Xrotation Yrotation
              End Site
              {
                OFFSET 15 -0 -0
              }
            }
          }
        }
      }
    }
  }
}
MOTION
Frames: 21
Frame Time: 0.0416666666667
-595.5732 101.0185 2610.401 -0.2419288 1.468524 -45.92564 6.332537 -30.22325 0.537329 -0 8.692975 -0 -9.07483 2.716017 -1.00739 -4.800914 14.86306 -10.90596 -0 23.66187 -0 1.146662 -17.51919 13.79967 0.3409906 -2.526531 5.713118 0.3253235 15.43391 -7.979727 0.1398574 20.73962 5.492825 5.047173 -18.47682 3.537056 -0.6125494 -22.87041 13.08609 93.46824 21.94344 -22.47396 -0 0 15.48646 -21.65644 9.939452 5.820678 6.005926 -28.83082 -10.46049 -86.55212 6.832783 18.20645 0 0 -23.92487 16.60312 13.589 -10.23631
-600.2419 101.1417 2614.753 -0.3843768 2.051203 -45.761 7.217133 -27.82954 1.55837 -0 10.70542 -0 -9.775951 2.333681 -0.9876127 -4.239793 13.5657 -10.58253 -0 31.5364 -0 -0.6548507 -14.3538 12.16372 0.3374061 -2.520631 5.78517 0.298989 15.44318 -7.924417 0.1317292 20.7097 5.43425 5.040159 -18.38154 3.467779 -0.5599202 -23.04017 13.08614 93.2451 22.03819 -22.12929 -0 0 15.89596 -21.64938 9.999072 5.92684 5.946398 -28.67926 -10.42942 -86.74678 6.8121 18.68908 0 0 -23.32102 16.47994 13.60522 -10.08911
-605.037 101.8694 2619.19 -1.066765 1.745996 -45.75344 7.739803 -23.61289 2.412691 -0 13.47841 -0 -10.62121 1.643653 -1.110647 -3.696313 11.30263 -10.25409 -0 40.77133 -0 -2.208164 -10.82549 11.3421 0.3496772 -2.526323 5.925815 0.2624092 15.47452 -7.829839 0.1360629 20.65862 5.285784 4.942924 -18.25286 3.375006 -0.5561874 -23.40957 13.07533 92.91973 22.07915 -21.49059 -0 0 16.6136 -21.66265 10.15199 6.20643 5.769079 -28.38484 -10.36393 -87.08984 6.878062 19.6437 0 0 -22.31248 16.11155 13.65531 -9.58085
-609.7551 103.1307 2623.505 -2.136911 0.6440807 -45.98883 7.953815 -18.18193 2.926857 -0 15.79988 -0 -11.44946 0.6396886 -1.257759 -3.189766 7.645438 -9.686159 -0 49.95069 -0 -3.064667 -7.563972 11.44371 0.3805291 -2.546636 6.146607 0.2150136 15.53465 -7.695374 0.1507832 20.57721 5.039296 4.752783 -18.08371 3.250361 -0.5977996 -24.00259 13.05698 92.4787 22.06349 -20.53649 -0 0 17.68746 -21.69418 10.40679 6.666342 5.465941 -27.93983 -10.26316 -87.60671 7.009688 21.1249 0 0 -20.86099 15.48577 13.72878 -8.696693
-614.2185 104.6819 2627.524 -3.290035 -0.8231922 -46.48363 7.967705 -12.43713 3.098077 -0 16.55349 -0 -11.92699 -0.8966851 -1.377781 -2.616658 2.54992 -8.746604 -0 56.90943 -0 -3.27465 -5.172918 12.20719 0.4295181 -2.580573 6.451896 0.1558614 15.62408 -7.51922 0.1732385 20.46037 4.695995 4.476085 -17.86961 3.089776 -0.6740803 -24.82394 13.03302 91.91025 21.99864 -19.25682 -0 0 19.14251 -21.74039 10.76258 7.30339 5.040897 -27.33979 -10.12271 -88.32269 7.176808 23.15143 0 0 -18.9374 14.60978 13.80857 -7.449948
-618.365 106.1517 2631.217 -4.259912 -2.217463 -47.17768 7.834517 -7.127058 2.955244 -0 15.34421 -0 -11.81325 -3.015767 -1.478474 -1.866414 -3.341719 -7.444798 -0 59.70403 -0 -2.989843 -3.931312 13.28776 0.4927813 -2.623642 6.832677 0.08531875 15.73624 -7.303003 0.2006521 20.31032 4.271703 4.130089 -17.61498 2.898006 -0.7708819 -25.84349 13.00442 91.22147 21.89634 -17.68216 -0 0 20.94505 -21.79754 11.20299 8.093672 4.515187 -26.59772 -9.938998 -89.24122 7.342504 25.6618 0 0 -16.5738 13.52308 13.87307 -5.89901
-622.263 107.1947 2634.706 -4.960048 -3.337135 -47.98084 7.567011 -2.542536 2.444892 -0 12.6638 -0 -11.28357 -5.304313 -1.509428 -0.9293518 -8.988947 -5.898704 -0 57.63649 -0 -2.140689 -3.643532 14.43475 0.5632668 -2.669121 7.264279 0.005826033 15.85865 -7.055203 0.2301051 20.13774 3.798586 3.74407 -17.33461 2.688654 -0.8726963 -26.98999 12.97214 90.44639 21.7708 -15.90097 -0 0 22.98634 -21.86221 11.69389 8.985464 3.929167 -25.75355 -9.71494 -90.3254 7.468964 28.49281 0 0 -13.89368 12.30483 13.90225 -4.157848
-626.0289 107.6308 2638.166 -5.417466 -4.114339 -48.81139 7.203985 1.452248 1.610716 -0 9.603782 -0 -10.78878 -7.372165 -1.402921 0.1198246 -13.66358 -4.365599 -0 51.44892 -0 -0.7171149 -3.776232 15.48755 0.6315521 -2.709139 7.709273 -0.07877727 15.97492 -6.790158 0.2590838 19.96105 3.320799 3.355859 -17.05048 2.481175 -0.9650213 -28.16014 12.93718 89.63993 21.63935 -14.0483 -0 0 25.09581 -21.93194 12.18771 9.905218 3.336849 -24.86997 -9.46218 -91.49556 7.531779 31.40028 0 0 -11.09679 11.06351 13.88726 -2.382126
-629.7397 107.4627 2641.717 -5.645246 -4.477674 -49.60568 6.784447 5.136015 0.7577907 -0 7.314937 -0 -10.59131 -9.368269 -1.202568 1.173014 -17.23292 -3.20354 -0 42.67774 -0 0.8893672 -3.829385 16.3403 0.6880449 -2.736109 8.126367 -0.1645698 16.0683 -6.523647 0.2863617 19.80228 2.883841 3.002821 -16.78599 2.296038 -1.037719 -29.24429 12.89991 88.86191 21.52069 -12.2694 -0 0 27.08418 -22.00582 12.63531 10.77663 2.792933 -24.01538 -9.198378 -92.64951 7.532748 34.12268 0 0 -8.40447 9.908742 13.83566 -0.729422
-633.4249 106.8015 2645.394 -5.662338 -4.445022 -50.32585 6.286022 8.665198 0.2492569 -0 6.528776 -0 -10.59454 -11.60105 -1.050908 2.080308 -19.76923 -2.69467 -0 32.9671 -0 2.109851 -3.611817 16.97381 0.7259691 -2.745066 8.481938 -0.248168 16.12702 -6.269593 0.3117827 19.67973 2.522471 2.712622 -16.55956 2.148529 -1.086373 -30.15662 12.86054 88.16107 21.43055 -10.68284 -0 0 28.79685 -22.08331 12.99954 11.53944 2.338931 -23.24661 -8.942742 -93.69333 7.495703 36.45373 0 0 -6.000825 8.923319 13.76659 0.6803746
-637.1149 105.7972 2649.2 -5.570339 -4.220806 -50.96772 5.646628 12.00913 0.1881651 -0 7.387894 -0 -10.58565 -13.83553 -1.029964 2.647691 -21.21574 -2.905894 -0 23.79413 -0 2.624166 -3.237952 17.48644 0.7430272 -2.735526 8.757179 -0.3263934 16.14805 -6.039884 0.3349901 19.60196 2.254132 2.499565 -16.38015 2.044254 -1.110374 -30.85142 12.82053 87.56756 21.37879 -9.364371 -0 0 30.14558 -22.16167 13.26252 12.15637 1.996495 -22.60183 -8.712959 -94.56162 7.449037 38.27925 0 0 -4.003751 8.152838 13.70068 1.779847
-640.8784 104.6141 2653.148 -5.532746 -4.104604 -51.55421 4.842783 15.03243 0.3594619 -0 9.613454 -0 -10.48371 -15.21336 -1.055922 2.709104 -21.44837 -3.698225 -0 16.3501 -0 2.47391 -2.959158 18.03036 0.7407235 -2.710976 8.946964 -0.3959208 16.13606 -5.844977 0.3548049 19.56793 2.080878 2.36668 -16.24801 1.980124 -1.110675 -31.31872 12.7827 87.09548 21.36957 -8.351975 -0 0 31.10363 -22.23519 13.42343 12.60976 1.770065 -22.1025 -8.523378 -95.21914 7.412965 39.56594 0 0 -2.470433 7.612192 13.65314 2.545395
-644.8164 103.432 2657.279 -5.684135 -4.317717 -52.11422 3.921853 17.57904 0.4277529 -0 12.86931 -0 -10.37775 -14.78556 -0.950115 2.203374 -20.43923 -4.843838 -0 11.34848 -0 1.913629 -2.987861 18.70144 0.7225121 -2.676456 9.053666 -0.4534587 16.09897 -5.69338 0.3698661 19.57166 1.996326 2.30995 -16.15964 1.949747 -1.089464 -31.56849 12.74992 86.75037 21.40251 -7.659509 -0 0 31.67892 -22.2972 13.49103 12.89535 1.654242 -21.75832 -8.383739 -95.65236 7.398708 40.32642 0 0 -1.419442 7.297774 13.63233 2.981086
-649.0184 102.451 2661.636 -6.06201 -4.901271 -52.65837 2.964471 19.47582 0.1668516 -0 17.07333 -0 -10.45806 -12.04746 -0.5665977 1.177673 -18.30252 -6.160212 -0 8.9345 -0 1.225428 -3.406476 19.47944 0.6923339 -2.636434 9.081136 -0.4959547 16.0441 -5.591314 0.379495 19.60674 1.992355 2.322056 -16.11293 1.948575 -1.050869 -31.6157 12.72392 86.53701 21.47354 -7.290878 -0 0 31.88723 -22.34247 13.47655 13.0162 1.640658 -21.57247 -8.299226 -95.85892 7.412908 40.58633 0 0 -0.8546573 7.198268 13.64124 3.104179
-653.5037 101.887 2666.215 -6.594654 -5.721414 -53.16046 2.036866 20.46085 -0.4499946 -0 22.44133 -0 -10.95579 -7.092455 0.1740409 -0.2543614 -15.25026 -7.573548 -0 8.824662 -0 0.6116385 -4.182722 20.23311 0.6539855 -2.594069 9.030796 -0.520311 15.97667 -5.543869 0.3839655 19.66872 2.06334 2.395121 -16.11035 1.976459 -1.001319 -31.47047 12.70502 86.46597 21.57533 -7.253583 -0 0 31.73358 -22.36795 13.38913 12.97671 1.722641 -21.54778 -8.272273 -95.83755 7.461029 40.36071 0 0 -0.7871625 7.303232 13.67929 2.933063
-658.1703 101.9396 2670.927 -7.106475 -6.506744 -53.54624 1.176398 20.10664 -1.268177 -0 29.23059 -0 -12.08282 -0.5933896 1.31615 -1.922542 -11.59273 -9.098124 -0 10.45855 -0 0.1431031 -5.240897 20.74046 0.6110099 -2.551493 8.899765 -0.5228226 15.89983 -5.556905 0.3843227 19.75565 2.208013 2.522297 -16.16 2.038166 -0.9495127 -31.13291 12.69269 86.55824 21.69722 -7.569203 -0 0 31.20199 -22.37221 13.23373 12.77757 1.897594 -21.69195 -8.304805 -95.58037 7.548345 39.63989 0 0 -1.251681 7.608802 13.74356 2.478834
-662.7773 102.7097 2675.584 -7.336105 -6.895389 -53.69972 0.408538 17.87009 -2.000266 -0 37.18751 -0 -13.87976 6.128258 2.81785 -3.567767 -7.803142 -10.76368 -0 12.96359 -0 -0.2832526 -6.539457 20.7322 0.5668669 -2.510595 8.681712 -0.4989344 15.81555 -5.637945 0.3820991 19.86742 2.428562 2.697529 -16.27492 2.142365 -0.9063305 -30.59439 12.68617 86.84562 21.8238 -8.274729 -0 0 30.25707 -22.35491 13.0115 12.4149 2.166217 -22.0189 -8.39907 -95.07166 7.678037 38.39012 0 0 -2.309286 8.117663 13.82857 1.744922
-667.0247 104.0771 2679.954 -7.073492 -6.620772 -53.51962 -0.2152135 13.44502 -2.373195 -0 44.81302 -0 -15.92145 11.28516 4.331813 -4.861469 -4.416537 -12.48161 -0 15.13752 -0 -0.890123 -8.132154 20.06484 0.5252952 -2.474249 8.372758 -0.4441214 15.72659 -5.794255 0.3789276 20.00315 2.725299 2.912719 -16.4686 2.297825 -0.8841638 -29.84977 12.68521 87.36132 21.93238 -9.404857 -0 0 28.8679 -22.31674 12.72371 11.88702 2.526522 -22.54144 -8.555688 -94.29939 7.844942 36.58156 0 0 -4.021663 8.828897 13.92415 0.7404708
-670.7547 105.6527 2683.896 -6.426799 -5.856163 -53.02337 -0.6157252 7.292718 -2.403157 -0 49.34352 -0 -17.26687 13.62475 5.138812 -5.575765 -1.568684 -13.90775 -0 15.90875 -0 -1.724976 -10.14285 18.99405 0.4903937 -2.447502 7.983344 -0.3567435 15.63912 -6.026743 0.3757485 20.15666 3.086801 3.153685 -16.74463 2.505097 -0.8935194 -28.92245 12.69111 88.1144 21.99341 -10.94853 -0 0 27.06096 -22.26001 12.3795 11.20945 2.962914 -23.25318 -8.769011 -93.2823 8.026063 34.25122 0 0 -6.385012 9.717567 14.01344 -0.4937122
-674.0714 106.9422 2687.426 -5.791602 -5.178667 -52.36922 -0.7753678 0.5367637 -2.421894 -0 48.61879 -0 -17.23149 13.4078 4.76157 -5.763044 1.224228 -14.62772 -0 15.08494 -0 -2.445754 -12.60248 18.09458 0.4654153 -2.436621 7.547239 -0.241897 15.5633 -6.322409 0.3717392 20.31367 3.483975 3.400957 -17.08496 2.747982 -0.9357801 -27.88302 12.70716 89.05884 21.9819 -12.80507 -0 0 24.96814 -22.18916 12.00094 10.42638 3.440385 -24.11038 -9.023625 -92.09463 8.178195 31.55903 0 0 -9.258336 10.72155 14.07584 -1.871273
-677.2072 107.6071 2690.647 -5.369722 -4.899788 -51.73241 -0.7511404 -5.927703 -2.642787 -0 43.10558 -0 -16.03438 11.78123 3.487025 -5.679888 4.37783 -14.6273 -0 13.32817 -0 -2.692489 -15.31774 17.71992 0.4504519 -2.444693 7.111811 -0.1120242 15.50806 -6.653929 0.3642395 20.45681 3.880398 3.639328 -17.45151 2.996623 -0.99784 -26.829 12.73681 90.09387 21.89672 -14.79882 -0 0 22.79855 -22.11055 11.61607 9.599862 3.917262 -25.03787 -9.297414 -90.8524 8.254463 28.75322 0 0 -12.37592 11.76078 14.09621 -3.289274
